<svg width="102" height="53" viewBox="0 0 102 53" fill="none" xmlns="http://www.w3.org/2000/svg">
<g clip-path="url(#clip0_183_38)">
<rect width="102" height="53" fill="black"/>
<rect width="56" height="63" transform="translate(-5 -6)" fill="black"/>
<path fill-rule="evenodd" clip-rule="evenodd" d="M49.4635 45.5031C49.4635 45.0924 49.3514 44.887 49.1274 44.887C47.7458 44.887 46.7003 44.775 45.9909 44.5509C45.3187 44.3269 44.74 43.8788 44.2546 43.2067C43.8065 42.4973 43.2651 41.3211 42.6303 39.6781C41.9208 37.8858 39.9978 32.4342 36.8613 23.3233C33.7248 14.2124 31.5777 7.95801 30.4202 4.56009C30.3829 4.3734 30.3082 4.22404 30.1962 4.11202C30.1215 4.03734 29.9721 4 29.7481 4C29.524 4 29.2627 4.05601 28.9639 4.16803L26.4435 4.89615C25.8556 5.07988 25.4666 5.42632 25.2764 5.93547L25.2195 5.95221C24.6594 6.13891 24.2673 6.51231 24.0433 7.0724L11.4411 40.5101C10.7641 42.2203 9.9002 43.4716 8.84927 44.2639C7.99917 44.6793 7.08676 44.887 6.11203 44.887C5.85066 44.887 5.71997 45.0924 5.71997 45.5031C5.71997 45.5153 5.72008 45.5272 5.72031 45.539C5.61071 45.547 5.5013 45.551 5.39207 45.551C5.24271 45.551 5.13069 45.6257 5.05601 45.775C5.01867 45.8871 5 46.0737 5 46.3351C5 46.5965 5.01867 46.8019 5.05601 46.9512C5.13069 47.0633 5.24271 47.1193 5.39207 47.1193H19.1704C19.3945 47.1193 19.5065 46.8579 19.5065 46.3351C19.5065 46.2601 19.5035 46.1882 19.4975 46.1192H20.3945C20.6559 46.1192 20.7865 45.9138 20.7865 45.5031C20.7865 45.0924 20.6559 44.887 20.3945 44.887C18.7515 44.887 17.4073 44.6443 16.3618 44.1589C15.3163 43.6361 14.7935 42.7773 14.7935 41.5824C14.7935 41.0223 14.8869 40.4809 15.0736 39.9582C15.2603 39.2114 16.0631 36.915 17.482 33.069C17.5745 32.8067 17.7053 32.5987 17.8744 32.4448C17.877 32.4448 17.8796 32.4447 17.8822 32.4447H31.204C31.373 32.5987 31.5038 32.8067 31.5964 33.069L33.9488 39.8461C34.4342 41.2277 34.6769 42.1425 34.6769 42.5906C34.6769 43.3374 34.2849 43.8975 33.5007 44.2709C32.7539 44.607 31.5217 44.8123 29.8041 44.887C29.5427 44.887 29.412 45.0924 29.412 45.5031C29.412 45.9138 29.5427 46.1192 29.8041 46.1192H29.9854C29.982 46.1844 29.9803 46.2564 29.9803 46.3351C29.9803 46.5965 29.999 46.8019 30.0363 46.9512C30.111 47.0633 30.223 47.1193 30.3723 47.1193H46.2791C46.5031 47.1193 46.6151 46.8579 46.6151 46.3351C46.6151 46.2601 46.6121 46.1882 46.6061 46.1192H49.1274C49.3514 46.1192 49.4635 45.9138 49.4635 45.5031ZM46.6061 46.1192C46.5971 46.0165 46.5815 45.9204 46.5591 45.831C46.5218 45.6443 46.4284 45.551 46.2791 45.551C43.2172 45.551 41.0889 43.9454 39.894 40.7342C39.4459 39.614 37.9336 35.3759 35.3572 28.02C32.8181 20.6641 30.9138 15.1751 29.6442 11.5532L27.7399 6.00822C27.7026 5.85886 27.5905 5.72817 27.4038 5.61615C27.3292 5.54147 27.1798 5.50414 26.9558 5.50414C26.7317 5.50414 26.4703 5.56015 26.1716 5.67217L25.2764 5.93547C25.2733 5.94372 25.2703 5.952 25.2673 5.96034C23.4377 10.8892 21.1786 16.8822 18.4902 23.9394C15.839 30.9593 13.804 36.3362 12.3851 40.0702C11.713 41.7878 10.8168 43.02 9.69665 43.7668C9.42142 43.9566 9.13897 44.1223 8.84927 44.2639C8.79882 44.3019 8.74795 44.3389 8.69664 44.3748C7.68944 45.0798 6.69732 45.4679 5.72031 45.539C5.72781 45.9258 5.85839 46.1192 6.11203 46.1192H19.4975C19.4885 46.0165 19.4728 45.9204 19.4505 45.831C19.4131 45.6443 19.3198 45.551 19.1704 45.551C15.6232 45.551 13.8495 44.3935 13.8495 42.0784C13.8495 41.3689 14.0175 40.5475 14.3536 39.614L15.5858 36.0294L16.538 33.3969C16.7611 32.7646 17.2066 32.4472 17.8744 32.4448C18.1145 32.2261 18.4318 32.1168 18.8262 32.1168H30.2522C30.6466 32.1168 30.9639 32.2261 31.204 32.4447H31.3245C31.9966 32.4447 32.4447 32.7621 32.6687 33.3969L35.4132 41.2943C35.5626 41.705 35.6373 42.1344 35.6373 42.5825C35.6373 43.7027 35.1145 44.4868 34.069 44.9349C33.0235 45.3456 31.7913 45.551 30.3723 45.551C30.223 45.551 30.111 45.6257 30.0363 45.775C30.0102 45.8533 29.9932 45.968 29.9854 46.1192H46.6061ZM18.9382 29.2603C18.9382 29.1483 18.9756 28.9803 19.0503 28.7562L22.3548 19.6267L24.4272 14.0257C24.5019 13.839 24.6512 13.895 24.8752 14.1937C25.1366 14.4551 25.342 14.8285 25.4914 15.3139C26.9849 19.7574 28.5345 24.2381 30.1402 28.7562C30.2148 28.9803 30.2522 29.1483 30.2522 29.2603C30.2522 29.5217 30.1588 29.7271 29.9721 29.8764C29.7854 30.0258 29.524 30.1005 29.188 30.1005H20.0024C19.6664 30.1005 19.405 30.0258 19.2183 29.8764C19.0316 29.7271 18.9382 29.5217 18.9382 29.2603ZM18.0502 29.4762C18.0502 29.3642 18.0876 29.1962 18.1623 28.9722C20.328 22.8484 22.4563 17.0421 24.5473 11.5532C24.622 11.3665 24.7714 11.4038 24.9954 11.6652C25.2195 11.9266 25.4062 12.3186 25.5555 12.8414L31.1565 28.9722L31.2685 29.4202C31.2685 30.0177 30.9138 30.3164 30.2043 30.3164H19.1144C18.7784 30.3164 18.517 30.2417 18.3303 30.0923C18.1436 29.943 18.0502 29.7376 18.0502 29.4762Z" fill="white"/>
<path d="M64.0161 46.5124C64.115 46.5124 64.1645 46.5972 64.1645 46.7668C64.1645 46.9223 64.115 47 64.0161 47H58.462C58.3631 47 58.3136 46.9223 58.3136 46.7668C58.3136 46.5972 58.3631 46.5124 58.462 46.5124H58.6952C59.0768 46.5124 59.3665 46.4488 59.5643 46.3216C59.7622 46.1803 59.8611 45.8906 59.8611 45.4525C59.8894 44.0534 59.9035 42.8309 59.9035 41.7851C59.9035 41.0502 59.8894 40.4142 59.8611 39.8772C59.8187 39.1423 59.6703 38.5629 59.4159 38.1389C59.1757 37.7149 58.7588 37.5029 58.1652 37.5029C57.3879 37.5029 56.6813 37.9905 56.0453 38.9656C55.9464 39.1494 55.8969 39.3331 55.8969 39.5168V45.4525C55.8969 45.8906 55.9959 46.1803 56.1937 46.3216C56.3916 46.4488 56.6884 46.5124 57.0841 46.5124H57.3173C57.4162 46.5124 57.4656 46.5972 57.4656 46.7668C57.4656 46.9223 57.4162 47 57.3173 47H51.742C51.6289 47 51.5724 46.9223 51.5724 46.7668C51.5724 46.5972 51.6289 46.5124 51.742 46.5124H51.9539C52.3497 46.5124 52.6464 46.4488 52.8443 46.3216C53.0422 46.1803 53.1411 45.8906 53.1411 45.4525V38.9232C53.1411 38.4569 53.0422 38.153 52.8443 38.0117C52.6464 37.8562 52.3143 37.7714 51.848 37.7573C51.7208 37.7432 51.6572 37.6301 51.6572 37.4181C51.6572 37.3333 51.6996 37.2839 51.7844 37.2697C51.9116 37.2273 53.1199 36.98 55.4094 36.5278H55.5154C55.6284 36.5278 55.7203 36.5631 55.7909 36.6338C55.8616 36.7044 55.8969 36.8034 55.8969 36.9305V37.5029C55.8969 37.616 55.9111 37.7078 55.9393 37.7785C55.9817 37.835 56.0312 37.8633 56.0877 37.8633C56.2008 37.8633 56.3068 37.7997 56.4057 37.6725C57.183 36.8528 58.0804 36.443 59.098 36.443C59.8611 36.443 60.5042 36.6055 61.0271 36.9305C61.55 37.2415 61.9386 37.6442 62.193 38.1389C62.4615 38.6335 62.6028 39.1564 62.617 39.7076V45.4525C62.617 45.8906 62.7159 46.1803 62.9138 46.3216C63.1116 46.4488 63.4084 46.5124 63.8041 46.5124H64.0161ZM68.3282 34.4079C67.8619 34.4079 67.4662 34.2454 67.1411 33.9203C66.8161 33.5953 66.6535 33.2066 66.6535 32.7544C66.6535 32.288 66.8161 31.8923 67.1411 31.5672C67.4662 31.2422 67.8619 31.0797 68.3282 31.0797C68.7805 31.0797 69.1691 31.2422 69.4942 31.5672C69.8334 31.8923 70.0029 32.288 70.0029 32.7544C70.0029 33.2066 69.8334 33.5953 69.4942 33.9203C69.1691 34.2454 68.7805 34.4079 68.3282 34.4079ZM65.5512 47C65.4523 47 65.4028 46.9152 65.4028 46.7456C65.4028 46.5902 65.4523 46.5124 65.5512 46.5124H65.7844C66.1942 46.5124 66.5122 46.4488 66.7383 46.3216C66.9644 46.1803 67.0775 45.8906 67.0775 45.4525V38.9232C67.0775 38.471 66.9786 38.1742 66.7807 38.0329C66.597 37.8774 66.2649 37.7856 65.7844 37.7573C65.6572 37.7573 65.5936 37.6513 65.5936 37.4393C65.5936 37.3404 65.636 37.2839 65.7208 37.2697L69.3458 36.5278H69.4518C69.5648 36.5278 69.6567 36.5631 69.7274 36.6338C69.798 36.7044 69.8334 36.8034 69.8334 36.9305V45.4525C69.8334 45.8906 69.9464 46.1803 70.1725 46.3216C70.4128 46.4488 70.7378 46.5124 71.1477 46.5124H71.3809C71.4798 46.5124 71.5293 46.5902 71.5293 46.7456C71.5293 46.9152 71.4798 47 71.3809 47H65.5512ZM74.4045 46.9152C74.3056 47 74.2067 47.0424 74.1077 47.0424C73.9805 47.0424 73.8958 46.9505 73.8534 46.7668L73.0902 43.693L73.069 43.587C73.069 43.4739 73.1255 43.3962 73.2386 43.3538C73.2669 43.3397 73.3093 43.3326 73.3658 43.3326C73.4647 43.3326 73.5424 43.3821 73.599 43.481C74.8992 45.5585 76.4255 46.5972 78.1779 46.5972C78.828 46.5972 79.3015 46.4488 79.5982 46.152C79.9092 45.8411 80.0646 45.4596 80.0646 45.0073C80.0646 44.6964 79.9657 44.4137 79.7678 44.1594C79.57 43.8908 79.2873 43.6788 78.9199 43.5234C78.4818 43.3397 77.8458 43.1206 77.012 42.8662C76.6728 42.7673 76.3336 42.6613 75.9944 42.5482C75.6694 42.4352 75.4079 42.3292 75.2101 42.2303C74.673 41.9617 74.242 41.6084 73.917 41.1703C73.5919 40.7181 73.4294 40.1952 73.4294 39.6016C73.4294 39.0363 73.5707 38.5134 73.8534 38.0329C74.1501 37.5524 74.56 37.1708 75.0829 36.8881C75.6199 36.5914 76.2276 36.443 76.906 36.443C77.33 36.443 77.7115 36.4783 78.0507 36.549C78.3899 36.6196 78.8139 36.7186 79.3227 36.8457C79.6477 36.9447 79.8526 36.9941 79.9374 36.9941C80.1918 36.9941 80.4391 36.8952 80.6794 36.6974C80.7924 36.5843 80.8914 36.5278 80.9762 36.5278C81.0892 36.5278 81.167 36.6196 81.2094 36.8034L81.9725 39.4956L81.9937 39.6228C81.9937 39.7076 81.9372 39.7783 81.8241 39.8348C81.7676 39.8631 81.7111 39.8772 81.6545 39.8772C81.5697 39.8772 81.4991 39.8348 81.4425 39.75C80.8207 38.8031 80.0788 38.1247 79.2167 37.7149C78.3687 37.2909 77.6126 37.0789 76.9484 37.0789C76.3407 37.0789 75.9096 37.2273 75.6553 37.5241C75.4009 37.8209 75.2737 38.1247 75.2737 38.4357C75.2737 38.9444 75.6623 39.3825 76.4396 39.75C76.7929 39.9055 77.3088 40.0892 77.9871 40.3012C79.0612 40.6403 79.8173 40.9159 80.2554 41.1279C80.8631 41.4247 81.3507 41.8133 81.7181 42.2939C82.0997 42.7744 82.2905 43.3467 82.2905 44.011C82.2905 45.0426 81.9231 45.8482 81.1882 46.4276C80.4674 46.9929 79.5346 47.2756 78.3899 47.2756C77.9801 47.2756 77.5914 47.2403 77.224 47.1696C76.8707 47.0989 76.4537 47 75.9732 46.8728C75.5351 46.7456 75.2454 46.682 75.1041 46.682C74.8638 46.682 74.6306 46.7597 74.4045 46.9152ZM96.1067 46.5124C96.2056 46.5124 96.2551 46.5972 96.2551 46.7668C96.2551 46.9223 96.2056 47 96.1067 47H90.5526C90.4395 47 90.383 46.9223 90.383 46.7668C90.383 46.5972 90.4395 46.5124 90.5526 46.5124H90.7646C91.1603 46.5124 91.4571 46.4488 91.6549 46.3216C91.8528 46.1803 91.9517 45.8906 91.9517 45.4525C91.98 44.0816 91.9941 42.8804 91.9941 41.8487C91.9941 41.0997 91.98 40.4425 91.9517 39.8772C91.9093 39.1423 91.7609 38.5629 91.5065 38.1389C91.2663 37.7149 90.8494 37.5029 90.2558 37.5029C89.8601 37.5029 89.4785 37.6301 89.1111 37.8845C88.7577 38.1389 88.4398 38.4922 88.1571 38.9444C88.0441 39.114 87.9875 39.2978 87.9875 39.4956V45.4525C87.9875 45.8906 88.0865 46.1803 88.2843 46.3216C88.4822 46.4488 88.7789 46.5124 89.1747 46.5124H89.3866C89.4997 46.5124 89.5562 46.5972 89.5562 46.7668C89.5562 46.9223 89.4997 47 89.3866 47H83.8113C83.7124 47 83.663 46.9223 83.663 46.7668C83.663 46.5972 83.7124 46.5124 83.8113 46.5124H84.0445C84.4402 46.5124 84.737 46.4488 84.9349 46.3216C85.1327 46.1803 85.2317 45.8906 85.2317 45.4525L85.2105 33.5387C85.2105 33.0865 85.1186 32.7897 84.9349 32.6484C84.7512 32.4929 84.419 32.4011 83.9385 32.3728H83.9173C83.8891 32.3728 83.8537 32.3304 83.8113 32.2456C83.769 32.1608 83.7478 32.0972 83.7478 32.0548C83.7478 31.97 83.7902 31.9206 83.8749 31.9064C84.0021 31.864 85.2105 31.6167 87.4999 31.1645H87.6059C87.719 31.1645 87.8109 31.1998 87.8815 31.2705C87.9522 31.3411 87.9875 31.44 87.9875 31.5672V37.5029C87.9875 37.616 88.0017 37.7078 88.0299 37.7785C88.0723 37.835 88.1218 37.8633 88.1783 37.8633C88.2914 37.8633 88.3974 37.7997 88.4963 37.6725C89.2736 36.8528 90.171 36.443 91.1886 36.443C91.9517 36.443 92.5947 36.6055 93.1176 36.9305C93.6406 37.2415 94.0292 37.6513 94.2836 38.1601C94.538 38.6547 94.6722 39.1776 94.6864 39.7288V45.4525C94.6864 45.8906 94.7853 46.1803 94.9831 46.3216C95.1951 46.4488 95.4919 46.5124 95.8735 46.5124H96.1067Z" fill="#D9D9D9"/>
</g>
<defs>
<clipPath id="clip0_183_38">
<rect width="102" height="53" fill="white"/>
</clipPath>
</defs>
</svg>
