<svg width="90" height="45" viewBox="0 0 90 45" fill="none" xmlns="http://www.w3.org/2000/svg">
<path fill-rule="evenodd" clip-rule="evenodd" d="M44.3957 40.887C44.6198 40.887 44.7318 41.0924 44.7318 41.5031C44.7318 41.9138 44.6198 42.1192 44.3957 42.1192H41.4977C41.448 42.042 41.3751 42.0034 41.2791 42.0034C38.2172 42.0034 36.0888 40.3978 34.894 37.1866C34.4459 36.0664 32.9336 31.8283 30.3572 24.4724C27.8181 17.1165 25.9138 11.6275 24.6442 8.00557L22.7399 2.46062C22.7026 2.31126 22.5905 2.18058 22.4038 2.06856C22.3292 1.99388 22.1798 1.95654 21.9558 1.95654C21.7317 1.95654 21.4703 2.01255 21.1716 2.12457L20.3892 2.3547L20.5356 1.96034C20.7223 1.43758 21.1144 1.08285 21.7118 0.896151L24.2323 0.168029C24.531 0.0560094 24.7924 0 25.0164 0C25.2404 0 25.3898 0.0373387 25.4645 0.112017C25.5765 0.224037 25.6512 0.373396 25.6885 0.560095C26.846 3.95801 28.9931 10.2124 32.1296 19.3233C35.2662 28.4342 37.1891 33.8858 37.8986 35.6781C38.5334 37.3211 39.0748 38.4973 39.5229 39.2067C40.0083 39.8788 40.5871 40.3269 41.2592 40.5509C41.9686 40.775 43.0141 40.887 44.3957 40.887ZM4.67718 39.9549C4.36998 40.2939 4.04313 40.5846 3.69663 40.8272C2.81207 41.4464 1.93915 41.8211 1.07787 41.9514C1.01814 41.8489 0.988279 41.6995 0.988279 41.5031C0.988279 41.0924 1.11897 40.887 1.38035 40.887C2.5725 40.887 3.67145 40.5763 4.67718 39.9549ZM14.3891 42.1192C14.3394 42.042 14.2665 42.0034 14.1704 42.0034C10.6232 42.0034 8.84951 40.8459 8.84951 38.5308C8.84951 37.8213 9.01754 36.9999 9.3536 36.0664L10.5858 32.4818L11.538 29.8493C11.755 29.2345 12.1822 28.9174 12.8195 28.8981C12.7945 28.9522 12.7714 29.0092 12.7503 29.069C11.3314 32.915 10.5286 35.2114 10.3419 35.9582C10.1552 36.4809 10.0618 37.0223 10.0618 37.5824C10.0618 38.7773 10.5846 39.6361 11.6301 40.1589C12.6756 40.6443 14.0198 40.887 15.6628 40.887C15.9242 40.887 16.0549 41.0924 16.0549 41.5031C16.0549 41.9138 15.9242 42.1192 15.6628 42.1192H14.3891ZM26.8263 28.9686C27.2253 29.0948 27.5061 29.3884 27.6687 29.8493L30.4132 37.7467C30.5626 38.1574 30.6372 38.5868 30.6372 39.0349C30.6372 40.1551 30.1145 40.9392 29.069 41.3873C28.0235 41.798 26.7913 42.0034 25.3723 42.0034C25.265 42.0034 25.1769 42.042 25.1081 42.1192H25.0724C24.811 42.1192 24.6803 41.9138 24.6803 41.5031C24.6803 41.0924 24.811 40.887 25.0724 40.887C26.79 40.8123 28.0222 40.607 28.769 40.2709C29.5532 39.8975 29.9452 39.3374 29.9452 38.5906C29.9452 38.1425 29.7025 37.2277 29.2171 35.8461L26.8647 29.069C26.8526 29.0346 26.8398 29.0011 26.8263 28.9686ZM26.8263 28.9686C26.5914 28.4007 26.1562 28.1168 25.5205 28.1168H14.0945C13.4857 28.1168 13.0607 28.3772 12.8195 28.8981C12.8402 28.8975 12.8611 28.8972 12.8822 28.8972H26.3245C26.5086 28.8972 26.6758 28.921 26.8263 28.9686ZM14.3891 42.1192H1.38035C1.24391 42.1192 1.14309 42.0633 1.07787 41.9514C0.84844 41.986 0.619845 42.0034 0.392067 42.0034C0.242708 42.0034 0.130689 42.0781 0.0560096 42.2274C0.0186698 42.3395 0 42.5262 0 42.7875C0 43.0489 0.0186698 43.2543 0.0560096 43.4036C0.130689 43.5157 0.242708 43.5717 0.392067 43.5717H14.1704C14.3945 43.5717 14.5065 43.3103 14.5065 42.7875C14.5065 42.6008 14.4878 42.4328 14.4505 42.2834C14.4371 42.2168 14.4167 42.1621 14.3891 42.1192ZM4.67718 39.9549C4.77397 39.8951 4.86989 39.8324 4.96496 39.7668C6.08515 39.02 6.9813 37.7878 7.65342 36.0702C9.07233 32.3362 11.1073 26.9593 13.7585 19.9394C16.3756 13.0694 18.5859 7.20779 20.3892 2.3547L20.2195 2.40462C19.6594 2.59131 19.2673 2.96471 19.0433 3.52481L6.4411 36.9625C5.9511 38.2004 5.36312 39.1979 4.67718 39.9549ZM25.1081 42.1192C25.0812 42.1494 25.0573 42.1855 25.0363 42.2274C24.9989 42.3395 24.9803 42.5262 24.9803 42.7875C24.9803 43.0489 24.9989 43.2543 25.0363 43.4036C25.111 43.5157 25.223 43.5717 25.3723 43.5717H41.2791C41.5031 43.5717 41.6151 43.3103 41.6151 42.7875C41.6151 42.6008 41.5965 42.4328 41.5591 42.2834C41.5458 42.2168 41.5253 42.1621 41.4977 42.1192H25.1081ZM14.3186 24.7562C14.2439 24.9803 14.2065 25.1483 14.2065 25.2603C14.2065 25.5217 14.2999 25.7271 14.4866 25.8764C14.6733 26.0258 14.9347 26.1005 15.2707 26.1005H24.4563C24.7924 26.1005 25.0537 26.0258 25.2404 25.8764C25.4271 25.7271 25.5205 25.5217 25.5205 25.2603C25.5205 25.1483 25.4831 24.9803 25.4085 24.7562C23.8029 20.2381 22.2533 15.7574 20.7597 11.3139C20.6103 10.8285 20.4049 10.4551 20.1436 10.1937C19.9195 9.89503 19.7702 9.83902 19.6955 10.0257L17.6231 15.6267L14.3186 24.7562ZM13.1623 25.4246C13.0876 25.6486 13.0502 25.8166 13.0502 25.9286C13.0502 26.19 13.1436 26.3954 13.3303 26.5447C13.517 26.6941 13.7784 26.7688 14.1144 26.7688H25.2043C25.9138 26.7688 26.2685 26.4701 26.2685 25.8726L26.1565 25.4246L20.5555 9.29379C20.4062 8.77104 20.2195 8.37897 19.9954 8.11759C19.7714 7.85621 19.622 7.81887 19.5473 8.00557C17.4563 13.4945 15.328 19.3008 13.1623 25.4246ZM57.9094 43.522C57.9094 43.3524 57.8599 43.2676 57.761 43.2676H57.549C57.1533 43.2676 56.8565 43.204 56.6587 43.0768C56.4608 42.9355 56.3619 42.6458 56.3619 42.2077V36.4628C56.3478 35.9116 56.2064 35.3887 55.9379 34.8941C55.6835 34.3994 55.2949 33.9967 54.772 33.6857C54.2491 33.3607 53.606 33.1982 52.8429 33.1982C51.8253 33.1982 50.9279 33.608 50.1506 34.4277C50.0517 34.5549 49.9457 34.6185 49.8326 34.6185C49.7761 34.6185 49.7267 34.5902 49.6843 34.5337C49.656 34.463 49.6419 34.3712 49.6419 34.2581V33.6857C49.6419 33.5585 49.6065 33.4596 49.5359 33.389C49.4652 33.3183 49.3733 33.283 49.2603 33.283H49.1543C46.8648 33.7352 45.6565 33.9825 45.5293 34.0249C45.4445 34.0391 45.4021 34.0885 45.4021 34.1733C45.4021 34.3853 45.4657 34.4984 45.5929 34.5125C46.0592 34.5266 46.3914 34.6114 46.5892 34.7669C46.7871 34.9082 46.886 35.2121 46.886 35.6784V42.2077C46.886 42.6458 46.7871 42.9355 46.5892 43.0768C46.3914 43.204 46.0946 43.2676 45.6989 43.2676H45.4869C45.3738 43.2676 45.3173 43.3524 45.3173 43.522C45.3173 43.6775 45.3738 43.7552 45.4869 43.7552H51.0622C51.1611 43.7552 51.2106 43.6775 51.2106 43.522C51.2106 43.3524 51.1611 43.2676 51.0622 43.2676H50.829C50.4333 43.2676 50.1365 43.204 49.9386 43.0768C49.7408 42.9355 49.6419 42.6458 49.6419 42.2077V36.272C49.6419 36.0883 49.6913 35.9045 49.7902 35.7208C50.4262 34.7457 51.1328 34.2581 51.9101 34.2581C52.5037 34.2581 52.9206 34.4701 53.1609 34.8941C53.4153 35.3181 53.5636 35.8975 53.606 36.6324C53.6343 37.1694 53.6484 37.8054 53.6484 38.5403C53.6484 39.5861 53.6343 40.8086 53.606 42.2077C53.606 42.6458 53.5071 42.9355 53.3093 43.0768C53.1114 43.204 52.8217 43.2676 52.4401 43.2676H52.2069C52.108 43.2676 52.0585 43.3524 52.0585 43.522C52.0585 43.6775 52.108 43.7552 52.2069 43.7552H57.761C57.8599 43.7552 57.9094 43.6775 57.9094 43.522ZM60.886 30.6755C61.2111 31.0005 61.6068 31.1631 62.0732 31.1631C62.5254 31.1631 62.914 31.0005 63.2391 30.6755C63.5783 30.3505 63.7479 29.9618 63.7479 29.5096C63.7479 29.0432 63.5783 28.6475 63.2391 28.3224C62.914 27.9974 62.5254 27.8349 62.0732 27.8349C61.6068 27.8349 61.2111 27.9974 60.886 28.3224C60.561 28.6475 60.3985 29.0432 60.3985 29.5096C60.3985 29.9618 60.561 30.3505 60.886 30.6755ZM59.1477 43.5008C59.1477 43.6704 59.1972 43.7552 59.2961 43.7552H65.1258C65.2247 43.7552 65.2742 43.6704 65.2742 43.5008C65.2742 43.3453 65.2247 43.2676 65.1258 43.2676H64.8926C64.4828 43.2676 64.1577 43.204 63.9175 43.0768C63.6913 42.9355 63.5783 42.6458 63.5783 42.2077V33.6857C63.5783 33.5585 63.5429 33.4596 63.4723 33.389C63.4016 33.3183 63.3098 33.283 63.1967 33.283H63.0907L59.4657 34.0249C59.3809 34.0391 59.3385 34.0956 59.3385 34.1945C59.3385 34.4065 59.4021 34.5125 59.5293 34.5125C60.0098 34.5408 60.3419 34.6326 60.5256 34.7881C60.7235 34.9294 60.8224 35.2262 60.8224 35.6784V42.2077C60.8224 42.6458 60.7094 42.9355 60.4832 43.0768C60.2571 43.204 59.9391 43.2676 59.5293 43.2676H59.2961C59.1972 43.2676 59.1477 43.3453 59.1477 43.5008ZM67.8527 43.7976C67.9516 43.7976 68.0505 43.7552 68.1494 43.6704C68.3756 43.5149 68.6088 43.4372 68.849 43.4372C68.9903 43.4372 69.2801 43.5008 69.7182 43.628C70.1987 43.7552 70.6156 43.8541 70.9689 43.9248C71.3363 43.9954 71.725 44.0308 72.1348 44.0308C73.2796 44.0308 74.2123 43.7481 74.9331 43.1828C75.668 42.6034 76.0354 41.7978 76.0354 40.7662C76.0354 40.1019 75.8446 39.5296 75.4631 39.049C75.0956 38.5685 74.608 38.1799 74.0003 37.8831C73.5622 37.6711 72.8061 37.3955 71.7321 37.0564C71.0537 36.8444 70.5378 36.6606 70.1845 36.5052C69.4072 36.1377 69.0186 35.6996 69.0186 35.1909C69.0186 34.8799 69.1458 34.5761 69.4002 34.2793C69.6546 33.9825 70.0856 33.8341 70.6933 33.8341C71.3575 33.8341 72.1136 34.0461 72.9616 34.4701C73.8237 34.8799 74.5656 35.5583 75.1875 36.5052C75.244 36.59 75.3147 36.6324 75.3995 36.6324C75.456 36.6324 75.5125 36.6182 75.569 36.59C75.6821 36.5335 75.7386 36.4628 75.7386 36.378L75.7174 36.2508L74.9543 33.5585C74.9119 33.3748 74.8342 33.283 74.7211 33.283C74.6363 33.283 74.5374 33.3395 74.4243 33.4525C74.1841 33.6504 73.9367 33.7493 73.6824 33.7493C73.5975 33.7493 73.3926 33.6999 73.0676 33.6009C72.5588 33.4737 72.1348 33.3748 71.7956 33.3042C71.4565 33.2335 71.0749 33.1982 70.6509 33.1982C69.9725 33.1982 69.3648 33.3466 68.8278 33.6433C68.3049 33.926 67.8951 34.3076 67.5983 34.7881C67.3156 35.2686 67.1743 35.7915 67.1743 36.3568C67.1743 36.9504 67.3368 37.4733 67.6619 37.9255C67.9869 38.3636 68.418 38.7169 68.955 38.9855C69.1529 39.0844 69.4143 39.1904 69.7394 39.3034C70.0785 39.4165 70.4177 39.5225 70.7569 39.6214C71.5907 39.8758 72.2267 40.0949 72.6648 40.2786C73.0322 40.434 73.3149 40.646 73.5128 40.9145C73.7106 41.1689 73.8095 41.4516 73.8095 41.7625C73.8095 42.2147 73.6541 42.5963 73.3432 42.9072C73.0464 43.204 72.5729 43.3524 71.9228 43.3524C70.1704 43.3524 68.6441 42.3137 67.3439 40.2362C67.2874 40.1373 67.2096 40.0878 67.1107 40.0878C67.0542 40.0878 67.0118 40.0949 66.9835 40.109C66.8705 40.1514 66.8139 40.2291 66.8139 40.3422L66.8351 40.4482L67.5983 43.522C67.6407 43.7057 67.7255 43.7976 67.8527 43.7976ZM90 43.522C90 43.3524 89.9505 43.2676 89.8516 43.2676H89.6184C89.2368 43.2676 88.9401 43.204 88.7281 43.0768C88.5302 42.9355 88.4313 42.6458 88.4313 42.2077V36.484C88.4172 35.9328 88.2829 35.4099 88.0285 34.9153C87.7741 34.4065 87.3855 33.9967 86.8626 33.6857C86.3397 33.3607 85.6966 33.1982 84.9335 33.1982C83.9159 33.1982 83.0185 33.608 82.2412 34.4277C82.1423 34.5549 82.0363 34.6185 81.9232 34.6185C81.8667 34.6185 81.8172 34.5902 81.7748 34.5337C81.7466 34.463 81.7324 34.3712 81.7324 34.2581V28.3224C81.7324 28.1952 81.6971 28.0963 81.6264 28.0256C81.5558 27.955 81.4639 27.9196 81.3509 27.9196H81.2449C78.9554 28.3719 77.7471 28.6192 77.6199 28.6616C77.5351 28.6757 77.4927 28.7252 77.4927 28.81C77.4927 28.8524 77.5139 28.916 77.5563 29.0008C77.5987 29.0856 77.634 29.128 77.6623 29.128H77.6835C78.164 29.1562 78.4961 29.2481 78.6798 29.4036C78.8635 29.5449 78.9554 29.8417 78.9554 30.2939L78.9766 42.2077C78.9766 42.6458 78.8777 42.9355 78.6798 43.0768C78.482 43.204 78.1852 43.2676 77.7895 43.2676H77.5563C77.4573 43.2676 77.4079 43.3524 77.4079 43.522C77.4079 43.6775 77.4573 43.7552 77.5563 43.7552H83.1316C83.2446 43.7552 83.3012 43.6775 83.3012 43.522C83.3012 43.3524 83.2446 43.2676 83.1316 43.2676H82.9196C82.5239 43.2676 82.2271 43.204 82.0292 43.0768C81.8314 42.9355 81.7324 42.6458 81.7324 42.2077V36.2508C81.7324 36.0529 81.789 35.8692 81.902 35.6996C82.1847 35.2474 82.5027 34.8941 82.856 34.6397C83.2234 34.3853 83.605 34.2581 84.0007 34.2581C84.5943 34.2581 85.0112 34.4701 85.2515 34.8941C85.5058 35.3181 85.6542 35.8975 85.6966 36.6324C85.7249 37.1977 85.739 37.8548 85.739 38.6039C85.739 39.6355 85.7249 40.8368 85.6966 42.2077C85.6966 42.6458 85.5977 42.9355 85.3998 43.0768C85.202 43.204 84.9052 43.2676 84.5095 43.2676H84.2975C84.1844 43.2676 84.1279 43.3524 84.1279 43.522C84.1279 43.6775 84.1844 43.7552 84.2975 43.7552H89.8516C89.9505 43.7552 90 43.6775 90 43.522Z" fill="black"/>
</svg>
